<?xml version="1.0" encoding="utf-8"?>
<!-- Generator: Adobe Illustrator 16.0.0, SVG Export Plug-In . SVG Version: 6.00 Build 0)  -->
<!DOCTYPE svg PUBLIC "-//W3C//DTD SVG 1.1//EN" "http://www.w3.org/Graphics/SVG/1.1/DTD/svg11.dtd">
<svg version="1.1" id="Layer_1" xmlns="http://www.w3.org/2000/svg" xmlns:xlink="http://www.w3.org/1999/xlink" x="0px" y="0px"
	 width="367.348px" height="191.936px" viewBox="0 0 367.348 191.936" enable-background="new 0 0 367.348 191.936"
	 xml:space="preserve">
<g>
	<g>
		<g>
			<g>
				<g>
					<rect x="64" y="0.497" fill="#4285F4" width="40.049" height="130.031"/>
					<rect x="183.824" y="0.497" fill="#00BFA5" width="40.285" height="130.031"/>
					<polygon fill="#1CE9B6" points="184.062,130.527 224.109,130.527 164.201,20.196 124.156,20.196 					"/>
					<rect y="0.497" fill="#4285F4" width="40.049" height="130.031"/>
				</g>
				<polygon fill="#4FC3F7" points="104.047,130.527 64,130.527 123.908,20.196 163.953,20.196 				"/>
			</g>
		</g>
		<g>
			<path fill="#00BFA5" d="M248.91,0h59.087c11.647,0,21.057,1.596,28.227,4.791c7.17,3.193,13.096,7.777,17.779,13.749
				c4.682,5.974,8.077,12.922,10.185,20.846c2.106,7.925,3.16,16.322,3.16,25.193c0,13.897-1.566,24.677-4.697,32.333
				c-3.132,7.66-7.478,14.076-13.037,19.25c-5.562,5.174-11.532,8.619-17.911,10.334c-8.722,2.367-16.623,3.549-23.705,3.549H248.91
				V0z M288.682,29.451v71.055h9.746c8.311,0,14.223-0.932,17.734-2.795c3.513-1.863,6.263-5.115,8.253-9.758
				c1.989-4.642,2.985-12.166,2.985-22.576c0-13.778-2.225-23.21-6.673-28.297c-4.448-5.086-11.823-7.629-22.124-7.629H288.682z"/>
		</g>
	</g>
	<g>
		<path fill="#FFFFFF" d="M32.739,166.297h-1.434v-16.975h1.434V166.297z"/>
		<path fill="#FFFFFF" d="M38.347,153.682l0.046,2.157c0.474-0.777,1.065-1.37,1.772-1.778c0.708-0.408,1.488-0.611,2.343-0.611
			c1.353,0,2.359,0.381,3.02,1.143s0.995,1.904,1.003,3.428v8.277h-1.388v-8.289c-0.008-1.127-0.247-1.967-0.717-2.519
			s-1.222-0.828-2.256-0.828c-0.863,0-1.626,0.271-2.291,0.811s-1.156,1.269-1.475,2.187v8.639h-1.387v-12.615H38.347z"/>
		<path fill="#FFFFFF" d="M52.302,150.453v3.229h2.611v1.143h-2.611v8.416c0,0.699,0.126,1.221,0.379,1.563
			c0.252,0.343,0.674,0.513,1.265,0.513c0.233,0,0.61-0.038,1.131-0.115l0.059,1.132c-0.366,0.131-0.863,0.196-1.493,0.196
			c-0.956,0-1.651-0.277-2.086-0.834c-0.436-0.555-0.653-1.373-0.653-2.453v-8.418h-2.32v-1.143h2.32v-3.229H52.302z"/>
		<path fill="#FFFFFF" d="M62.689,166.529c-1.073,0-2.042-0.264-2.909-0.793c-0.867-0.527-1.541-1.265-2.023-2.209
			s-0.723-2.003-0.723-3.177v-0.501c0-1.213,0.235-2.305,0.705-3.276s1.125-1.735,1.965-2.291c0.839-0.556,1.749-0.833,2.728-0.833
			c1.531,0,2.745,0.522,3.643,1.568c0.897,1.045,1.347,2.473,1.347,4.283v0.781h-9v0.269c0,1.431,0.41,2.622,1.23,3.573
			c0.82,0.952,1.852,1.428,3.095,1.428c0.746,0,1.405-0.135,1.976-0.408c0.571-0.271,1.09-0.707,1.557-1.305l0.874,0.664
			C66.128,165.787,64.64,166.529,62.689,166.529z M62.433,154.639c-1.049,0-1.934,0.385-2.652,1.153
			c-0.719,0.77-1.156,1.804-1.312,3.102h7.566v-0.151c-0.039-1.213-0.385-2.199-1.038-2.961S63.49,154.639,62.433,154.639z"/>
		<path fill="#FFFFFF" d="M75.968,154.871c-0.295-0.055-0.61-0.082-0.944-0.082c-0.871,0-1.607,0.244-2.209,0.729
			c-0.602,0.486-1.032,1.191-1.288,2.117v8.662h-1.387v-12.615h1.364l0.023,2.006c0.738-1.492,1.924-2.238,3.556-2.238
			c0.389,0,0.696,0.051,0.921,0.151L75.968,154.871z"/>
		<path fill="#FFFFFF" d="M79.501,153.682l0.046,2.157c0.474-0.777,1.065-1.37,1.772-1.778c0.708-0.408,1.488-0.611,2.343-0.611
			c1.353,0,2.359,0.381,3.02,1.143s0.995,1.904,1.003,3.428v8.277h-1.388v-8.289c-0.008-1.127-0.247-1.967-0.717-2.519
			s-1.222-0.828-2.256-0.828c-0.863,0-1.626,0.271-2.291,0.811s-1.156,1.269-1.475,2.187v8.639h-1.387v-12.615H79.501z"/>
		<path fill="#FFFFFF" d="M99.25,166.297c-0.14-0.396-0.229-0.983-0.268-1.761c-0.49,0.638-1.113,1.129-1.871,1.475
			s-1.561,0.519-2.408,0.519c-1.212,0-2.193-0.338-2.943-1.014c-0.75-0.677-1.125-1.531-1.125-2.564c0-1.229,0.511-2.2,1.533-2.916
			c1.022-0.715,2.446-1.072,4.273-1.072h2.53v-1.434c0-0.901-0.278-1.611-0.833-2.127c-0.556-0.518-1.366-0.775-2.431-0.775
			c-0.972,0-1.776,0.248-2.414,0.746c-0.637,0.497-0.956,1.096-0.956,1.795l-1.399-0.012c0-1.002,0.466-1.871,1.399-2.605
			c0.933-0.734,2.079-1.102,3.439-1.102c1.407,0,2.516,0.352,3.329,1.055c0.812,0.703,1.23,1.685,1.253,2.943v5.97
			c0,1.22,0.128,2.134,0.385,2.739v0.141H99.25z M94.867,165.294c0.933,0,1.766-0.226,2.5-0.677c0.734-0.45,1.269-1.053,1.603-1.807
			v-2.775h-2.495c-1.392,0.017-2.479,0.271-3.265,0.764c-0.785,0.494-1.177,1.172-1.177,2.035c0,0.707,0.262,1.294,0.787,1.76
			C93.345,165.061,94.027,165.294,94.867,165.294z"/>
		<path fill="#FFFFFF" d="M106.245,150.453v3.229h2.611v1.143h-2.611v8.416c0,0.699,0.126,1.221,0.379,1.563
			c0.252,0.343,0.674,0.513,1.265,0.513c0.233,0,0.61-0.038,1.131-0.115l0.059,1.132c-0.366,0.131-0.863,0.196-1.493,0.196
			c-0.956,0-1.651-0.277-2.086-0.834c-0.436-0.555-0.653-1.373-0.653-2.453v-8.418h-2.32v-1.143h2.32v-3.229H106.245z"/>
		<path fill="#FFFFFF" d="M111.667,150.039c0-0.263,0.085-0.484,0.256-0.666s0.404-0.273,0.699-0.273s0.531,0.092,0.706,0.273
			s0.262,0.403,0.262,0.666c0,0.262-0.087,0.482-0.262,0.66s-0.41,0.267-0.706,0.267s-0.528-0.089-0.699-0.267
			S111.667,150.301,111.667,150.039z M113.31,166.297h-1.399v-12.615h1.399V166.297z"/>
		<path fill="#FFFFFF" d="M116.33,159.803c0-1.213,0.235-2.305,0.705-3.275c0.47-0.973,1.135-1.729,1.994-2.268
			c0.859-0.541,1.833-0.811,2.92-0.811c1.679,0,3.039,0.588,4.081,1.766s1.562,2.738,1.562,4.682v0.291
			c0,1.221-0.235,2.318-0.705,3.293c-0.47,0.977-1.133,1.729-1.988,2.256c-0.855,0.529-1.831,0.793-2.926,0.793
			c-1.671,0-3.029-0.588-4.075-1.766s-1.568-2.738-1.568-4.682V159.803z M117.729,160.188c0,1.508,0.391,2.746,1.172,3.713
			c0.781,0.968,1.805,1.451,3.072,1.451c1.259,0,2.279-0.483,3.061-1.451c0.781-0.967,1.171-2.244,1.171-3.83v-0.268
			c0-0.964-0.179-1.846-0.536-2.646c-0.358-0.801-0.859-1.42-1.504-1.859c-0.646-0.439-1.384-0.658-2.215-0.658
			c-1.244,0-2.258,0.487-3.042,1.463c-0.785,0.975-1.178,2.252-1.178,3.83V160.188z"/>
		<path fill="#FFFFFF" d="M131.8,153.682l0.046,2.157c0.474-0.777,1.065-1.37,1.772-1.778c0.708-0.408,1.488-0.611,2.343-0.611
			c1.353,0,2.359,0.381,3.02,1.143s0.995,1.904,1.003,3.428v8.277h-1.388v-8.289c-0.008-1.127-0.247-1.967-0.717-2.519
			s-1.222-0.828-2.256-0.828c-0.863,0-1.626,0.271-2.291,0.811s-1.156,1.269-1.475,2.187v8.639h-1.387v-12.615H131.8z"/>
		<path fill="#FFFFFF" d="M151.549,166.297c-0.14-0.396-0.229-0.983-0.268-1.761c-0.49,0.638-1.113,1.129-1.871,1.475
			s-1.561,0.519-2.408,0.519c-1.212,0-2.193-0.338-2.943-1.014c-0.75-0.677-1.125-1.531-1.125-2.564c0-1.229,0.511-2.2,1.533-2.916
			c1.022-0.715,2.446-1.072,4.273-1.072h2.53v-1.434c0-0.901-0.278-1.611-0.833-2.127c-0.556-0.518-1.366-0.775-2.431-0.775
			c-0.972,0-1.776,0.248-2.414,0.746c-0.637,0.497-0.956,1.096-0.956,1.795l-1.399-0.012c0-1.002,0.466-1.871,1.399-2.605
			c0.933-0.734,2.079-1.102,3.439-1.102c1.407,0,2.516,0.352,3.329,1.055s1.23,1.685,1.253,2.943v5.97
			c0,1.22,0.129,2.134,0.385,2.739v0.141H151.549z M147.166,165.294c0.933,0,1.766-0.226,2.5-0.677
			c0.734-0.45,1.269-1.053,1.603-1.807v-2.775h-2.495c-1.392,0.017-2.479,0.271-3.265,0.764c-0.785,0.494-1.177,1.172-1.177,2.035
			c0,0.707,0.262,1.294,0.787,1.76C145.645,165.061,146.327,165.294,147.166,165.294z"/>
		<path fill="#FFFFFF" d="M157.938,166.297h-1.399v-17.908h1.399V166.297z"/>
		<path fill="#FFFFFF" d="M170.996,161.715l0.524,2.635l0.642-2.519l3.684-12.509h1.294l3.638,12.509l0.63,2.542l0.56-2.658
			l3.066-12.393h1.469l-4.348,16.975h-1.376l-3.848-13.279l-0.431-1.679l-0.42,1.679l-3.94,13.279h-1.376l-4.337-16.975h1.469
			L170.996,161.715z"/>
		<path fill="#FFFFFF" d="M187.806,159.803c0-1.213,0.236-2.305,0.707-3.275c0.469-0.973,1.135-1.729,1.992-2.268
			c0.859-0.541,1.832-0.811,2.922-0.811c1.678,0,3.037,0.588,4.08,1.766c1.041,1.178,1.562,2.738,1.562,4.682v0.291
			c0,1.221-0.236,2.318-0.707,3.293c-0.469,0.977-1.133,1.729-1.986,2.256c-0.855,0.529-1.83,0.793-2.928,0.793
			c-1.67,0-3.029-0.588-4.074-1.766s-1.568-2.738-1.568-4.682V159.803z M189.206,160.188c0,1.508,0.391,2.746,1.172,3.713
			c0.781,0.968,1.805,1.451,3.07,1.451c1.26,0,2.279-0.483,3.061-1.451c0.781-0.967,1.172-2.244,1.172-3.83v-0.268
			c0-0.964-0.178-1.846-0.535-2.646s-0.859-1.42-1.504-1.859c-0.646-0.439-1.385-0.658-2.215-0.658
			c-1.244,0-2.258,0.487-3.043,1.463c-0.785,0.975-1.178,2.252-1.178,3.83V160.188z"/>
		<path fill="#FFFFFF" d="M203.22,153.682l0.045,2.053c0.467-0.762,1.051-1.334,1.75-1.715c0.699-0.38,1.477-0.57,2.332-0.57
			c1.988,0,3.252,0.816,3.789,2.447c0.449-0.784,1.053-1.389,1.807-1.812s1.586-0.635,2.494-0.635c2.705,0,4.084,1.477,4.139,4.43
			v8.418h-1.398v-8.312c-0.008-1.127-0.25-1.963-0.729-2.507s-1.258-0.816-2.338-0.816c-1.002,0.017-1.85,0.341-2.541,0.974
			c-0.691,0.634-1.076,1.404-1.154,2.314v8.348h-1.398v-8.418c-0.008-1.08-0.264-1.887-0.764-2.419
			c-0.502-0.532-1.273-0.799-2.314-0.799c-0.879,0-1.633,0.251-2.262,0.752c-0.631,0.501-1.096,1.246-1.4,2.233v8.65h-1.398v-12.615
			H203.22z"/>
		<path fill="#FFFFFF" d="M227.993,166.529c-1.072,0-2.043-0.264-2.908-0.793c-0.867-0.527-1.541-1.265-2.023-2.209
			s-0.723-2.003-0.723-3.177v-0.501c0-1.213,0.234-2.305,0.705-3.276s1.125-1.735,1.965-2.291s1.748-0.833,2.729-0.833
			c1.531,0,2.744,0.522,3.643,1.568c0.898,1.045,1.346,2.473,1.346,4.283v0.781h-9v0.269c0,1.431,0.41,2.622,1.23,3.573
			c0.82,0.952,1.852,1.428,3.096,1.428c0.746,0,1.404-0.135,1.977-0.408c0.57-0.271,1.09-0.707,1.555-1.305l0.875,0.664
			C231.433,165.787,229.944,166.529,227.993,166.529z M227.737,154.639c-1.051,0-1.934,0.385-2.652,1.153
			c-0.719,0.77-1.156,1.804-1.312,3.102h7.566v-0.151c-0.039-1.213-0.385-2.199-1.037-2.961S228.794,154.639,227.737,154.639z"/>
		<path fill="#FFFFFF" d="M236.771,153.682l0.047,2.157c0.475-0.777,1.064-1.37,1.773-1.778c0.707-0.408,1.488-0.611,2.342-0.611
			c1.354,0,2.359,0.381,3.02,1.143c0.662,0.762,0.996,1.904,1.004,3.428v8.277h-1.389v-8.289c-0.008-1.127-0.246-1.967-0.717-2.519
			s-1.223-0.828-2.256-0.828c-0.861,0-1.625,0.271-2.291,0.811c-0.664,0.54-1.156,1.269-1.475,2.187v8.639h-1.387v-12.615H236.771z"
			/>
		<path fill="#FFFFFF" d="M247.358,153.484l-0.828-0.607c0.699-0.939,1.061-1.927,1.084-2.961v-1.527h1.375v1.178
			C248.989,151.191,248.446,152.497,247.358,153.484z"/>
		<path fill="#FFFFFF" d="M258.118,163.09c0-0.691-0.277-1.247-0.834-1.666c-0.555-0.42-1.393-0.748-2.512-0.986
			c-1.119-0.236-1.988-0.508-2.605-0.815c-0.619-0.308-1.078-0.683-1.377-1.125c-0.299-0.443-0.447-0.979-0.447-1.608
			c0-0.995,0.414-1.817,1.246-2.467c0.832-0.648,1.896-0.973,3.195-0.973c1.406,0,2.535,0.348,3.387,1.043
			c0.85,0.695,1.275,1.604,1.275,2.723h-1.398c0-0.738-0.309-1.353-0.926-1.842c-0.619-0.49-1.398-0.734-2.338-0.734
			c-0.918,0-1.654,0.203-2.209,0.611c-0.557,0.408-0.834,0.938-0.834,1.592c0,0.629,0.23,1.117,0.693,1.463s1.305,0.662,2.529,0.95
			s2.143,0.595,2.752,0.921s1.062,0.719,1.357,1.178c0.297,0.459,0.443,1.014,0.443,1.667c0,1.065-0.43,1.916-1.287,2.554
			c-0.859,0.637-1.98,0.955-3.363,0.955c-1.471,0-2.66-0.355-3.574-1.066s-1.369-1.611-1.369-2.699h1.398
			c0.055,0.816,0.398,1.451,1.031,1.906s1.471,0.682,2.514,0.682c0.971,0,1.756-0.213,2.354-0.641
			C257.819,164.283,258.118,163.743,258.118,163.09z"/>
		<path fill="#FFFFFF" d="M268.786,166.297v-16.975h4.744c1.391,0,2.639,0.316,3.742,0.949c1.104,0.635,1.965,1.541,2.582,2.723
			c0.619,1.182,0.928,2.525,0.928,4.033v1.562c0,1.516-0.309,2.861-0.922,4.034c-0.613,1.174-1.479,2.079-2.594,2.716
			c-1.115,0.639-2.396,0.957-3.842,0.957H268.786z M270.22,150.534v14.55h3.217c1.787,0,3.223-0.594,4.303-1.779
			c1.08-1.187,1.621-2.791,1.621-4.812v-1.494c0-1.952-0.533-3.516-1.598-4.69s-2.469-1.766-4.209-1.773H270.22z"/>
		<path fill="#FFFFFF" d="M292.056,166.297c-0.141-0.396-0.23-0.983-0.268-1.761c-0.49,0.638-1.115,1.129-1.873,1.475
			s-1.559,0.519-2.406,0.519c-1.213,0-2.193-0.338-2.943-1.014c-0.75-0.677-1.125-1.531-1.125-2.564c0-1.229,0.51-2.2,1.533-2.916
			c1.021-0.715,2.445-1.072,4.271-1.072h2.531v-1.434c0-0.901-0.279-1.611-0.834-2.127c-0.557-0.518-1.367-0.775-2.432-0.775
			c-0.971,0-1.775,0.248-2.412,0.746c-0.639,0.497-0.957,1.096-0.957,1.795l-1.398-0.012c0-1.002,0.467-1.871,1.398-2.605
			c0.934-0.734,2.08-1.102,3.439-1.102c1.406,0,2.516,0.352,3.328,1.055s1.23,1.685,1.254,2.943v5.97
			c0,1.22,0.129,2.134,0.385,2.739v0.141H292.056z M287.671,165.294c0.934,0,1.768-0.226,2.502-0.677
			c0.734-0.45,1.268-1.053,1.604-1.807v-2.775h-2.496c-1.391,0.017-2.479,0.271-3.264,0.764c-0.785,0.494-1.178,1.172-1.178,2.035
			c0,0.707,0.262,1.294,0.787,1.76C286.149,165.061,286.833,165.294,287.671,165.294z"/>
		<path fill="#FFFFFF" d="M300.706,164.291l3.684-10.609h1.504l-5.387,14.76l-0.279,0.652c-0.691,1.531-1.76,2.297-3.205,2.297
			c-0.336,0-0.693-0.055-1.074-0.162l-0.012-1.154l0.725,0.069c0.684,0,1.236-0.169,1.66-0.507s0.783-0.92,1.078-1.743l0.619-1.702
			l-4.758-12.51h1.527L300.706,164.291z"/>
		<path fill="#FFFFFF" d="M320.128,166.297h-1.398V151l-4.617,1.715v-1.307l5.783-2.145h0.232V166.297z"/>
		<path fill="#FFFFFF" d="M337.325,150.127l-7.252,16.17h-1.457l7.205-15.785h-9.654v-1.189h11.158V150.127z"/>
	</g>
	<g>
		<path fill="#FFFFFF" d="M68.485,186.525v3.062h-1.031v-7.82h2.884c0.856,0,1.526,0.219,2.012,0.654
			c0.485,0.438,0.728,1.016,0.728,1.736c0,0.758-0.237,1.342-0.712,1.752c-0.474,0.41-1.154,0.615-2.038,0.615H68.485z
			 M68.485,185.684h1.853c0.551,0,0.974-0.131,1.268-0.391s0.44-0.637,0.44-1.127c0-0.467-0.147-0.84-0.44-1.119
			c-0.293-0.281-0.696-0.426-1.208-0.436h-1.912V185.684z"/>
		<path fill="#FFFFFF" d="M73.905,186.629c0-0.57,0.112-1.082,0.335-1.537c0.224-0.455,0.536-0.805,0.935-1.053
			c0.399-0.246,0.855-0.371,1.367-0.371c0.792,0,1.432,0.275,1.92,0.822c0.489,0.549,0.733,1.277,0.733,2.186v0.07
			c0,0.566-0.108,1.074-0.325,1.523c-0.216,0.449-0.526,0.799-0.929,1.049c-0.403,0.252-0.866,0.377-1.389,0.377
			c-0.788,0-1.426-0.273-1.915-0.822c-0.488-0.547-0.733-1.273-0.733-2.176V186.629z M74.904,186.746
			c0,0.645,0.149,1.162,0.449,1.553c0.299,0.391,0.699,0.586,1.2,0.586c0.505,0,0.906-0.199,1.203-0.594
			c0.297-0.396,0.446-0.951,0.446-1.662c0-0.639-0.151-1.154-0.454-1.551c-0.303-0.395-0.705-0.594-1.206-0.594
			c-0.491,0-0.886,0.195-1.187,0.586S74.904,186.02,74.904,186.746z"/>
		<path fill="#FFFFFF" d="M85.587,188.219l1.117-4.443h0.994l-1.692,5.812H85.2l-1.413-4.404l-1.375,4.404h-0.806l-1.687-5.812
			h0.988l1.144,4.352l1.354-4.352h0.8L85.587,188.219z"/>
		<path fill="#FFFFFF" d="M91.119,189.695c-0.788,0-1.429-0.26-1.923-0.777s-0.741-1.209-0.741-2.074v-0.184
			c0-0.576,0.11-1.092,0.331-1.545c0.22-0.453,0.528-0.807,0.924-1.062c0.396-0.256,0.824-0.385,1.286-0.385
			c0.755,0,1.343,0.25,1.762,0.748c0.419,0.496,0.628,1.209,0.628,2.137v0.414h-3.937c0.014,0.572,0.182,1.035,0.502,1.389
			c0.321,0.352,0.728,0.529,1.222,0.529c0.351,0,0.648-0.072,0.892-0.215c0.244-0.145,0.457-0.334,0.639-0.57l0.607,0.473
			C92.824,189.32,92.093,189.695,91.119,189.695z M90.996,184.484c-0.401,0-0.738,0.146-1.01,0.438
			c-0.272,0.293-0.44,0.701-0.505,1.229h2.911v-0.076c-0.029-0.504-0.165-0.896-0.408-1.174S91.411,184.484,90.996,184.484z"/>
		<path fill="#FFFFFF" d="M97.344,184.668c-0.15-0.025-0.313-0.037-0.489-0.037c-0.652,0-1.094,0.277-1.327,0.832v4.125h-0.994
			v-5.812h0.967l0.016,0.672c0.326-0.52,0.788-0.779,1.386-0.779c0.193,0,0.34,0.025,0.44,0.076V184.668z"/>
		<path fill="#FFFFFF" d="M100.567,189.695c-0.788,0-1.429-0.26-1.923-0.777s-0.741-1.209-0.741-2.074v-0.184
			c0-0.576,0.11-1.092,0.331-1.545c0.22-0.453,0.528-0.807,0.924-1.062c0.396-0.256,0.824-0.385,1.286-0.385
			c0.755,0,1.343,0.25,1.762,0.748c0.419,0.496,0.628,1.209,0.628,2.137v0.414h-3.937c0.014,0.572,0.182,1.035,0.502,1.389
			c0.321,0.352,0.728,0.529,1.222,0.529c0.351,0,0.648-0.072,0.892-0.215c0.244-0.145,0.457-0.334,0.639-0.57l0.607,0.473
			C102.271,189.32,101.541,189.695,100.567,189.695z M100.443,184.484c-0.401,0-0.738,0.146-1.01,0.438
			c-0.272,0.293-0.44,0.701-0.505,1.229h2.911v-0.076c-0.029-0.504-0.165-0.896-0.408-1.174S100.859,184.484,100.443,184.484z"/>
		<path fill="#FFFFFF" d="M103.741,186.633c0-0.891,0.211-1.607,0.634-2.15s0.976-0.814,1.66-0.814c0.68,0,1.219,0.232,1.617,0.699
			v-3.029h0.994v8.25h-0.913l-0.048-0.623c-0.397,0.486-0.951,0.73-1.66,0.73c-0.673,0-1.222-0.275-1.646-0.828
			c-0.424-0.551-0.636-1.271-0.636-2.158V186.633z M104.735,186.746c0,0.658,0.136,1.174,0.408,1.547s0.648,0.559,1.128,0.559
			c0.63,0,1.09-0.283,1.38-0.848v-2.67c-0.297-0.549-0.754-0.822-1.37-0.822c-0.487,0-0.867,0.188-1.139,0.564
			C104.871,185.451,104.735,186.008,104.735,186.746z"/>
		<path fill="#FFFFFF" d="M117.83,186.746c0,0.889-0.204,1.602-0.612,2.141s-0.956,0.809-1.644,0.809
			c-0.734,0-1.302-0.26-1.703-0.779l-0.048,0.672h-0.913v-8.25h0.994v3.078c0.401-0.498,0.954-0.748,1.66-0.748
			s1.26,0.268,1.662,0.801c0.403,0.533,0.604,1.264,0.604,2.191V186.746z M116.836,186.633c0-0.676-0.131-1.199-0.392-1.568
			s-0.637-0.553-1.128-0.553c-0.655,0-1.126,0.305-1.413,0.914v2.514c0.304,0.607,0.779,0.912,1.423,0.912
			c0.476,0,0.847-0.184,1.112-0.553S116.836,187.375,116.836,186.633z"/>
		<path fill="#FFFFFF" d="M120.923,188.133l1.354-4.357h1.063l-2.336,6.709c-0.362,0.967-0.937,1.451-1.724,1.451l-0.188-0.018
			l-0.371-0.068v-0.807l0.269,0.021c0.336,0,0.599-0.068,0.787-0.203c0.188-0.137,0.343-0.387,0.464-0.748l0.22-0.59l-2.073-5.748
			h1.085L120.923,188.133z"/>
		<path fill="#FFFFFF" d="M128.792,187.123l0.15,1.031l0.22-0.93l1.547-5.457h0.87l1.509,5.457l0.215,0.945l0.167-1.053l1.214-5.35
			h1.037l-1.896,7.82h-0.94l-1.611-5.699l-0.124-0.596l-0.124,0.596l-1.67,5.699h-0.94l-1.891-7.82h1.031L128.792,187.123z"/>
		<path fill="#FFFFFF" d="M136.279,186.629c0-0.57,0.112-1.082,0.335-1.537c0.224-0.455,0.536-0.805,0.935-1.053
			c0.399-0.246,0.855-0.371,1.367-0.371c0.792,0,1.432,0.275,1.92,0.822c0.489,0.549,0.733,1.277,0.733,2.186v0.07
			c0,0.566-0.108,1.074-0.325,1.523c-0.216,0.449-0.526,0.799-0.929,1.049c-0.403,0.252-0.866,0.377-1.389,0.377
			c-0.788,0-1.426-0.273-1.915-0.822c-0.488-0.547-0.733-1.273-0.733-2.176V186.629z M137.278,186.746
			c0,0.645,0.149,1.162,0.449,1.553c0.299,0.391,0.699,0.586,1.2,0.586c0.505,0,0.906-0.199,1.203-0.594
			c0.297-0.396,0.446-0.951,0.446-1.662c0-0.639-0.151-1.154-0.454-1.551c-0.303-0.395-0.705-0.594-1.206-0.594
			c-0.491,0-0.886,0.195-1.187,0.586S137.278,186.02,137.278,186.746z"/>
		<path fill="#FFFFFF" d="M143.75,183.775l0.027,0.645c0.426-0.5,1.001-0.752,1.724-0.752c0.813,0,1.366,0.312,1.66,0.936
			c0.193-0.279,0.445-0.506,0.754-0.678c0.31-0.172,0.676-0.258,1.099-0.258c1.275,0,1.923,0.676,1.944,2.025v3.895h-0.994v-3.836
			c0-0.414-0.095-0.725-0.285-0.932c-0.19-0.205-0.508-0.309-0.956-0.309c-0.369,0-0.675,0.109-0.918,0.33s-0.385,0.518-0.424,0.889
			v3.857h-0.999v-3.809c0-0.846-0.414-1.268-1.241-1.268c-0.652,0-1.098,0.277-1.337,0.832v4.244h-0.994v-5.812H143.75z"/>
		<path fill="#FFFFFF" d="M154.869,189.695c-0.788,0-1.429-0.26-1.923-0.777s-0.741-1.209-0.741-2.074v-0.184
			c0-0.576,0.11-1.092,0.331-1.545c0.22-0.453,0.528-0.807,0.924-1.062c0.396-0.256,0.824-0.385,1.286-0.385
			c0.755,0,1.343,0.25,1.762,0.748c0.419,0.496,0.628,1.209,0.628,2.137v0.414h-3.937c0.014,0.572,0.182,1.035,0.502,1.389
			c0.321,0.352,0.728,0.529,1.222,0.529c0.351,0,0.648-0.072,0.892-0.215c0.244-0.145,0.457-0.334,0.639-0.57l0.607,0.473
			C156.573,189.32,155.843,189.695,154.869,189.695z M154.745,184.484c-0.401,0-0.738,0.146-1.01,0.438
			c-0.272,0.293-0.44,0.701-0.505,1.229h2.911v-0.076c-0.029-0.504-0.165-0.896-0.408-1.174S155.161,184.484,154.745,184.484z"/>
		<path fill="#FFFFFF" d="M159.225,183.775l0.032,0.73c0.444-0.559,1.024-0.838,1.74-0.838c1.228,0,1.848,0.693,1.858,2.08v3.84
			h-0.994v-3.846c-0.003-0.42-0.1-0.729-0.287-0.93c-0.188-0.201-0.481-0.301-0.878-0.301c-0.322,0-0.605,0.086-0.849,0.258
			s-0.433,0.398-0.569,0.678v4.141h-0.994v-5.812H159.225z"/>
		<path fill="#FFFFFF" d="M172.421,182.611h-2.514v6.977h-1.026v-6.977h-2.508v-0.844h6.048V182.611z"/>
		<path fill="#FFFFFF" d="M175.306,189.695c-0.788,0-1.429-0.26-1.923-0.777s-0.741-1.209-0.741-2.074v-0.184
			c0-0.576,0.11-1.092,0.331-1.545c0.22-0.453,0.528-0.807,0.924-1.062c0.396-0.256,0.824-0.385,1.286-0.385
			c0.755,0,1.343,0.25,1.762,0.748c0.419,0.496,0.628,1.209,0.628,2.137v0.414h-3.937c0.014,0.572,0.182,1.035,0.502,1.389
			c0.321,0.352,0.728,0.529,1.222,0.529c0.351,0,0.648-0.072,0.892-0.215c0.244-0.145,0.457-0.334,0.639-0.57l0.607,0.473
			C177.01,189.32,176.28,189.695,175.306,189.695z M175.182,184.484c-0.401,0-0.738,0.146-1.01,0.438
			c-0.272,0.293-0.44,0.701-0.505,1.229h2.911v-0.076c-0.029-0.504-0.165-0.896-0.408-1.174S175.598,184.484,175.182,184.484z"/>
		<path fill="#FFFFFF" d="M181.053,188.885c0.354,0,0.664-0.107,0.929-0.322s0.412-0.484,0.44-0.807h0.94
			c-0.018,0.334-0.132,0.65-0.344,0.951s-0.493,0.541-0.846,0.719c-0.353,0.18-0.726,0.27-1.12,0.27
			c-0.792,0-1.421-0.264-1.888-0.793c-0.468-0.527-0.701-1.25-0.701-2.166v-0.168c0-0.564,0.104-1.068,0.312-1.508
			c0.208-0.441,0.506-0.783,0.895-1.027c0.388-0.242,0.848-0.365,1.377-0.365c0.652,0,1.193,0.195,1.625,0.586
			c0.432,0.391,0.662,0.896,0.69,1.52h-0.94c-0.029-0.375-0.171-0.684-0.427-0.926c-0.256-0.242-0.572-0.363-0.948-0.363
			c-0.505,0-0.896,0.182-1.173,0.545c-0.278,0.363-0.417,0.891-0.417,1.578v0.188c0,0.67,0.138,1.186,0.414,1.547
			S180.541,188.885,181.053,188.885z"/>
		<path fill="#FFFFFF" d="M185.474,184.48c0.439-0.541,1.013-0.812,1.719-0.812c1.228,0,1.848,0.693,1.857,2.08v3.84h-0.993v-3.846
			c-0.003-0.42-0.1-0.729-0.287-0.93c-0.188-0.201-0.481-0.301-0.878-0.301c-0.322,0-0.605,0.086-0.85,0.258
			c-0.243,0.172-0.433,0.398-0.568,0.678v4.141h-0.994v-8.25h0.994V184.48z"/>
		<path fill="#FFFFFF" d="M191.473,183.775l0.026,0.645c0.427-0.5,1.002-0.752,1.725-0.752c0.812,0,1.366,0.312,1.66,0.936
			c0.193-0.279,0.444-0.506,0.754-0.678c0.311-0.172,0.676-0.258,1.099-0.258c1.274,0,1.923,0.676,1.944,2.025v3.895h-0.994v-3.836
			c0-0.414-0.094-0.725-0.284-0.932c-0.19-0.205-0.509-0.309-0.956-0.309c-0.369,0-0.675,0.109-0.918,0.33
			c-0.244,0.221-0.385,0.518-0.425,0.889v3.857h-0.999v-3.809c0-0.846-0.414-1.268-1.24-1.268c-0.652,0-1.098,0.277-1.338,0.832
			v4.244h-0.994v-5.812H191.473z"/>
		<path fill="#FFFFFF" d="M203.767,189.588c-0.057-0.115-0.104-0.318-0.139-0.613c-0.463,0.48-1.014,0.721-1.654,0.721
			c-0.573,0-1.043-0.162-1.41-0.486s-0.551-0.734-0.551-1.232c0-0.605,0.23-1.076,0.689-1.41c0.461-0.336,1.107-0.502,1.942-0.502
			h0.967v-0.457c0-0.348-0.104-0.623-0.312-0.83c-0.207-0.205-0.514-0.309-0.918-0.309c-0.355,0-0.652,0.09-0.893,0.27
			c-0.239,0.178-0.359,0.395-0.359,0.648h-0.999c0-0.289,0.103-0.57,0.31-0.84c0.205-0.271,0.484-0.484,0.838-0.643
			c0.352-0.156,0.74-0.236,1.162-0.236c0.67,0,1.194,0.168,1.574,0.502c0.379,0.336,0.576,0.797,0.59,1.385v2.674
			c0,0.533,0.068,0.957,0.205,1.273v0.086H203.767z M202.118,188.83c0.312,0,0.607-0.08,0.887-0.242
			c0.279-0.16,0.48-0.369,0.606-0.627v-1.193h-0.778c-1.218,0-1.826,0.355-1.826,1.068c0,0.312,0.104,0.555,0.311,0.73
			C201.525,188.742,201.792,188.83,202.118,188.83z"/>
		<path fill="#FFFFFF" d="M207.784,186.896l-0.623,0.65v2.041h-0.993v-8.25h0.993v4.99l0.532-0.641l1.81-1.912h1.209l-2.262,2.428
			l2.525,3.385h-1.166L207.784,186.896z"/>
		<path fill="#FFFFFF" d="M214.042,189.695c-0.787,0-1.429-0.26-1.923-0.777s-0.741-1.209-0.741-2.074v-0.184
			c0-0.576,0.109-1.092,0.33-1.545s0.528-0.807,0.924-1.062c0.396-0.256,0.824-0.385,1.287-0.385c0.755,0,1.342,0.25,1.762,0.748
			c0.418,0.496,0.628,1.209,0.628,2.137v0.414h-3.937c0.014,0.572,0.182,1.035,0.502,1.389c0.32,0.352,0.728,0.529,1.222,0.529
			c0.351,0,0.647-0.072,0.892-0.215c0.244-0.145,0.457-0.334,0.639-0.57l0.607,0.473
			C215.747,189.32,215.017,189.695,214.042,189.695z M213.919,184.484c-0.401,0-0.738,0.146-1.01,0.438
			c-0.272,0.293-0.441,0.701-0.506,1.229h2.912v-0.076c-0.029-0.504-0.165-0.896-0.408-1.174
			C214.663,184.623,214.334,184.484,213.919,184.484z"/>
		<path fill="#FFFFFF" d="M220.267,184.668c-0.15-0.025-0.312-0.037-0.488-0.037c-0.652,0-1.094,0.277-1.326,0.832v4.125h-0.994
			v-5.812h0.967l0.016,0.672c0.326-0.52,0.788-0.779,1.387-0.779c0.193,0,0.34,0.025,0.439,0.076V184.668z"/>
		<path fill="#FFFFFF" d="M224.563,188.047c0-0.27-0.102-0.479-0.303-0.627c-0.203-0.148-0.555-0.275-1.059-0.383
			c-0.503-0.107-0.902-0.236-1.197-0.387s-0.514-0.33-0.656-0.537c-0.141-0.209-0.211-0.455-0.211-0.742
			c0-0.477,0.201-0.879,0.604-1.209c0.402-0.328,0.918-0.494,1.545-0.494c0.658,0,1.193,0.17,1.604,0.512
			c0.41,0.34,0.615,0.773,0.615,1.305h-1c0-0.273-0.115-0.508-0.346-0.703c-0.232-0.197-0.522-0.297-0.873-0.297
			c-0.362,0-0.645,0.08-0.85,0.236c-0.203,0.158-0.306,0.363-0.306,0.619c0,0.238,0.095,0.42,0.284,0.541
			c0.19,0.123,0.533,0.238,1.029,0.35s0.896,0.244,1.205,0.398c0.309,0.152,0.537,0.338,0.686,0.555s0.223,0.48,0.223,0.793
			c0,0.52-0.207,0.936-0.623,1.248c-0.416,0.314-0.954,0.471-1.617,0.471c-0.465,0-0.877-0.082-1.234-0.248
			c-0.358-0.164-0.639-0.395-0.842-0.689c-0.201-0.295-0.303-0.615-0.303-0.959h0.994c0.018,0.334,0.15,0.598,0.4,0.793
			c0.248,0.195,0.576,0.293,0.984,0.293c0.377,0,0.678-0.076,0.906-0.229C224.45,188.504,224.563,188.301,224.563,188.047z"/>
		<path fill="#FFFFFF" d="M229.731,189.588v-7.82h2.557c0.848,0,1.486,0.176,1.914,0.525c0.428,0.352,0.643,0.871,0.643,1.559
			c0,0.365-0.104,0.688-0.312,0.969c-0.207,0.281-0.49,0.498-0.848,0.652c0.422,0.119,0.756,0.344,1.002,0.674
			c0.244,0.332,0.367,0.727,0.367,1.186c0,0.701-0.227,1.252-0.682,1.654c-0.455,0.4-1.098,0.602-1.928,0.602H229.731z
			 M230.763,185.104h1.557c0.451,0,0.812-0.113,1.084-0.34c0.27-0.227,0.404-0.533,0.404-0.92c0-0.432-0.125-0.744-0.375-0.939
			c-0.252-0.195-0.633-0.293-1.145-0.293h-1.525V185.104z M230.763,185.93v2.814h1.703c0.479,0,0.857-0.125,1.135-0.373
			c0.277-0.25,0.416-0.592,0.416-1.029c0-0.941-0.512-1.412-1.535-1.412H230.763z"/>
		<path fill="#FFFFFF" d="M238.835,189.695c-0.787,0-1.43-0.26-1.924-0.777s-0.74-1.209-0.74-2.074v-0.184
			c0-0.576,0.109-1.092,0.33-1.545s0.529-0.807,0.924-1.062c0.396-0.256,0.824-0.385,1.287-0.385c0.756,0,1.342,0.25,1.762,0.748
			c0.418,0.496,0.627,1.209,0.627,2.137v0.414h-3.936c0.014,0.572,0.182,1.035,0.502,1.389c0.32,0.352,0.727,0.529,1.221,0.529
			c0.352,0,0.648-0.072,0.893-0.215c0.244-0.145,0.457-0.334,0.639-0.57l0.607,0.473C240.54,189.32,239.81,189.695,238.835,189.695z
			 M238.712,184.484c-0.402,0-0.738,0.146-1.01,0.438c-0.273,0.293-0.441,0.701-0.506,1.229h2.912v-0.076
			c-0.029-0.504-0.166-0.896-0.408-1.174C239.456,184.623,239.126,184.484,238.712,184.484z"/>
		<path fill="#FFFFFF" d="M243.331,189.588h-0.994v-8.25h0.994V189.588z"/>
		<path fill="#FFFFFF" d="M244.657,186.629c0-0.57,0.111-1.082,0.336-1.537c0.223-0.455,0.535-0.805,0.934-1.053
			c0.4-0.246,0.855-0.371,1.367-0.371c0.791,0,1.432,0.275,1.92,0.822c0.49,0.549,0.734,1.277,0.734,2.186v0.07
			c0,0.566-0.109,1.074-0.326,1.523s-0.525,0.799-0.928,1.049c-0.404,0.252-0.867,0.377-1.389,0.377
			c-0.789,0-1.426-0.273-1.916-0.822c-0.488-0.547-0.732-1.273-0.732-2.176V186.629z M245.657,186.746
			c0,0.645,0.148,1.162,0.447,1.553s0.699,0.586,1.201,0.586c0.504,0,0.906-0.199,1.203-0.594c0.297-0.396,0.445-0.951,0.445-1.662
			c0-0.639-0.15-1.154-0.453-1.551c-0.303-0.395-0.705-0.594-1.207-0.594c-0.49,0-0.885,0.195-1.186,0.586
			S245.657,186.02,245.657,186.746z"/>
		<path fill="#FFFFFF" d="M260.083,189.588h-1.037v-3.615h-3.941v3.615h-1.031v-7.82h1.031v3.361h3.941v-3.361h1.037V189.588z"/>
		<path fill="#FFFFFF" d="M261.495,186.629c0-0.57,0.113-1.082,0.336-1.537c0.225-0.455,0.535-0.805,0.936-1.053
			c0.398-0.246,0.855-0.371,1.367-0.371c0.791,0,1.432,0.275,1.92,0.822c0.488,0.549,0.732,1.277,0.732,2.186v0.07
			c0,0.566-0.107,1.074-0.324,1.523s-0.527,0.799-0.93,1.049c-0.402,0.252-0.865,0.377-1.389,0.377
			c-0.787,0-1.426-0.273-1.914-0.822c-0.488-0.547-0.734-1.273-0.734-2.176V186.629z M262.495,186.746
			c0,0.645,0.15,1.162,0.449,1.553s0.699,0.586,1.199,0.586c0.506,0,0.906-0.199,1.203-0.594c0.297-0.396,0.445-0.951,0.445-1.662
			c0-0.639-0.15-1.154-0.453-1.551c-0.303-0.395-0.705-0.594-1.205-0.594c-0.49,0-0.887,0.195-1.188,0.586
			S262.495,186.02,262.495,186.746z"/>
		<path fill="#FFFFFF" d="M270.841,184.668c-0.15-0.025-0.312-0.037-0.488-0.037c-0.65,0-1.094,0.277-1.326,0.832v4.125h-0.994
			v-5.812h0.967l0.016,0.672c0.326-0.52,0.789-0.779,1.387-0.779c0.193,0,0.34,0.025,0.439,0.076V184.668z"/>
		<path fill="#FFFFFF" d="M271.761,182.234c0-0.16,0.049-0.297,0.146-0.408c0.1-0.111,0.244-0.166,0.438-0.166
			s0.34,0.055,0.441,0.166c0.1,0.111,0.15,0.248,0.15,0.408c0,0.162-0.051,0.295-0.15,0.402c-0.102,0.107-0.248,0.162-0.441,0.162
			s-0.338-0.055-0.438-0.162C271.81,182.529,271.761,182.396,271.761,182.234z M272.835,189.588h-0.994v-5.812h0.994V189.588z"/>
		<path fill="#FFFFFF" d="M275.358,188.777h3.398v0.811h-4.613v-0.73l3.207-4.26h-3.158v-0.822h4.404v0.705L275.358,188.777z"/>
		<path fill="#FFFFFF" d="M279.526,186.629c0-0.57,0.111-1.082,0.336-1.537c0.223-0.455,0.535-0.805,0.934-1.053
			c0.4-0.246,0.855-0.371,1.367-0.371c0.791,0,1.432,0.275,1.92,0.822c0.49,0.549,0.734,1.277,0.734,2.186v0.07
			c0,0.566-0.109,1.074-0.326,1.523s-0.525,0.799-0.928,1.049c-0.404,0.252-0.867,0.377-1.389,0.377
			c-0.789,0-1.426-0.273-1.916-0.822c-0.488-0.547-0.732-1.273-0.732-2.176V186.629z M280.526,186.746
			c0,0.645,0.148,1.162,0.447,1.553s0.699,0.586,1.201,0.586c0.504,0,0.906-0.199,1.203-0.594c0.297-0.396,0.445-0.951,0.445-1.662
			c0-0.639-0.15-1.154-0.453-1.551c-0.303-0.395-0.705-0.594-1.207-0.594c-0.49,0-0.885,0.195-1.186,0.586
			S280.526,186.02,280.526,186.746z"/>
		<path fill="#FFFFFF" d="M287.003,183.775l0.033,0.73c0.443-0.559,1.023-0.838,1.74-0.838c1.227,0,1.848,0.693,1.857,2.08v3.84
			h-0.994v-3.846c-0.004-0.42-0.1-0.729-0.287-0.93s-0.48-0.301-0.877-0.301c-0.322,0-0.605,0.086-0.85,0.258
			s-0.434,0.398-0.568,0.678v4.141h-0.994v-5.812H287.003z"/>
		<path fill="#FFFFFF" d="M293.479,182.369v1.406h1.086v0.77h-1.086v3.607c0,0.232,0.049,0.408,0.146,0.525
			c0.096,0.115,0.262,0.174,0.494,0.174c0.113,0,0.271-0.021,0.473-0.064v0.801c-0.262,0.072-0.516,0.107-0.764,0.107
			c-0.443,0-0.779-0.135-1.004-0.402c-0.227-0.27-0.338-0.65-0.338-1.145v-3.604h-1.059v-0.77h1.059v-1.406H293.479z"/>
		<path fill="#FFFFFF" d="M298.138,189.695c-0.787,0-1.43-0.26-1.924-0.777s-0.74-1.209-0.74-2.074v-0.184
			c0-0.576,0.109-1.092,0.33-1.545s0.529-0.807,0.924-1.062c0.396-0.256,0.824-0.385,1.287-0.385c0.756,0,1.342,0.25,1.762,0.748
			c0.418,0.496,0.627,1.209,0.627,2.137v0.414h-3.936c0.014,0.572,0.182,1.035,0.502,1.389c0.32,0.352,0.727,0.529,1.221,0.529
			c0.352,0,0.648-0.072,0.893-0.215c0.244-0.145,0.457-0.334,0.639-0.57l0.607,0.473
			C299.843,189.32,299.112,189.695,298.138,189.695z M298.015,184.484c-0.402,0-0.738,0.146-1.01,0.438
			c-0.273,0.293-0.441,0.701-0.506,1.229h2.912v-0.076c-0.029-0.504-0.166-0.896-0.408-1.174
			C298.759,184.623,298.429,184.484,298.015,184.484z"/>
	</g>
</g>
</svg>
